# xmcd
#
# Track frame offsets:
# 150
# 11139
# 27602
# 36607
# 48577
#
# Disc length: 698 seconds
#
#
# Revision: 0
# Processed by: cddbd v1.5.2PL0 Copyright (c) Steve Scherf et al.
# Submitted via: FreeRIP 2.943 
#
DISCID=4502b805
DTITLE=Me Infecto - Killing Ourselves Slowly
DYEAR=2004
DGENRE=Salsa
TTITLE0=Killing Ourselves Slowly as Possible
TTITLE1=Destinations a Hoax
TTITLE2=In the Company of Whores
TTITLE3=Peel Away
TTITLE4=Something I Never Want to Hold
EXTD=zz
EXTT0=
EXTT1=
EXTT2=
EXTT3=
EXTT4=
PLAYORDER=
